<mxfile host="app.diagrams.net" modified="2021-09-01T16:27:15.493Z" agent="5.0 (Windows NT 10.0; WOW64) AppleWebKit/537.36 (KHTML, like Gecko) Chrome/92.0.4515.159 Safari/537.36" etag="WTxik9ls-aK8Z-Lrytt8" version="15.0.3" type="github">
  <diagram id="SLyaPsewwZzmOotXSfVY" name="Page-1">
    <mxGraphModel dx="652" dy="317" grid="0" gridSize="10" guides="1" tooltips="1" connect="1" arrows="1" fold="1" page="1" pageScale="1" pageWidth="827" pageHeight="1169" math="1" shadow="0">
      <root>
        <mxCell id="0" />
        <mxCell id="1" parent="0" />
        <mxCell id="ESDh05Wh4LpR0lza09tz-3" value="" style="edgeStyle=orthogonalEdgeStyle;rounded=0;orthogonalLoop=1;jettySize=auto;html=1;" edge="1" parent="1" source="ESDh05Wh4LpR0lza09tz-1" target="ESDh05Wh4LpR0lza09tz-2">
          <mxGeometry relative="1" as="geometry" />
        </mxCell>
        <mxCell id="ESDh05Wh4LpR0lza09tz-1" value="$$定义S_{pcf}与S_{cps}\\ 之间的匹配关系\sim$$" style="rounded=0;whiteSpace=wrap;html=1;" vertex="1" parent="1">
          <mxGeometry x="170" y="80" width="120" height="60" as="geometry" />
        </mxCell>
        <mxCell id="ESDh05Wh4LpR0lza09tz-8" value="" style="edgeStyle=orthogonalEdgeStyle;rounded=0;orthogonalLoop=1;jettySize=auto;html=1;entryX=0.5;entryY=0;entryDx=0;entryDy=0;" edge="1" parent="1" source="ESDh05Wh4LpR0lza09tz-2" target="ESDh05Wh4LpR0lza09tz-9">
          <mxGeometry relative="1" as="geometry">
            <mxPoint x="230.0000000000001" y="380" as="targetPoint" />
          </mxGeometry>
        </mxCell>
        <mxCell id="ESDh05Wh4LpR0lza09tz-2" value="$$PCF程序的CPS\\ 转换实现了语义保护$$" style="whiteSpace=wrap;html=1;rounded=0;" vertex="1" parent="1">
          <mxGeometry x="170" y="200" width="120" height="60" as="geometry" />
        </mxCell>
        <mxCell id="ESDh05Wh4LpR0lza09tz-4" value="$$S_{pcf}\sim S_{cps},S_{pcf}\rightarrow&amp;nbsp;S_{pcf}\prime,&amp;nbsp;&lt;br&gt;\\ \exists&amp;nbsp;S_{cps}\prime, S_{cps}经过一步或多步转换\\ 到达S_{cps}\prime, 且S_{pcf}\prime\sim S_{cps}\prime&lt;br&gt;$$" style="rounded=0;whiteSpace=wrap;html=1;" vertex="1" parent="1">
          <mxGeometry x="330" y="140" width="200" height="80" as="geometry" />
        </mxCell>
        <mxCell id="ESDh05Wh4LpR0lza09tz-9" value="$$F_{proc}(t_{pcf})=OK(t_{cps}), \\ t_{pcf}\approx t_{cps}&lt;br&gt;$$" style="whiteSpace=wrap;html=1;rounded=0;" vertex="1" parent="1">
          <mxGeometry x="145" y="320" width="170" height="60" as="geometry" />
        </mxCell>
        <mxCell id="ESDh05Wh4LpR0lza09tz-11" value="$$Comp(t_{pcf})=t_{cps},\\ t_{cps}&lt;br&gt;\Downarrow terminate n\Longrightarrow \\&amp;nbsp; program_{ssa}\Downarrow terminate n&lt;br&gt;$$" style="rounded=0;whiteSpace=wrap;html=1;" vertex="1" parent="1">
          <mxGeometry x="330" y="240" width="200" height="80" as="geometry" />
        </mxCell>
        <mxCell id="ESDh05Wh4LpR0lza09tz-12" value="" style="endArrow=none;dashed=1;html=1;entryX=0;entryY=0.5;entryDx=0;entryDy=0;exitX=1;exitY=0.5;exitDx=0;exitDy=0;" edge="1" parent="1" source="ESDh05Wh4LpR0lza09tz-2" target="ESDh05Wh4LpR0lza09tz-4">
          <mxGeometry width="50" height="50" relative="1" as="geometry">
            <mxPoint x="290" y="220" as="sourcePoint" />
            <mxPoint x="330" y="180" as="targetPoint" />
          </mxGeometry>
        </mxCell>
        <mxCell id="ESDh05Wh4LpR0lza09tz-13" value="" style="endArrow=none;dashed=1;html=1;exitX=1;exitY=0.5;exitDx=0;exitDy=0;entryX=0;entryY=0.5;entryDx=0;entryDy=0;" edge="1" parent="1" source="ESDh05Wh4LpR0lza09tz-2" target="ESDh05Wh4LpR0lza09tz-11">
          <mxGeometry width="50" height="50" relative="1" as="geometry">
            <mxPoint x="280" y="340" as="sourcePoint" />
            <mxPoint x="330" y="290" as="targetPoint" />
          </mxGeometry>
        </mxCell>
        <mxCell id="ESDh05Wh4LpR0lza09tz-16" value="$$G_{proc}(t_{cps})=OK(t_{ssa}), \\ t_{cps}\approx t_{ssa}&lt;br&gt;$$" style="whiteSpace=wrap;html=1;rounded=0;" vertex="1" parent="1">
          <mxGeometry x="340" y="350" width="170" height="60" as="geometry" />
        </mxCell>
        <mxCell id="ESDh05Wh4LpR0lza09tz-17" value="" style="endArrow=classic;html=1;entryX=0.5;entryY=0;entryDx=0;entryDy=0;" edge="1" parent="1" target="ESDh05Wh4LpR0lza09tz-19">
          <mxGeometry width="50" height="50" relative="1" as="geometry">
            <mxPoint x="430" y="410" as="sourcePoint" />
            <mxPoint x="480" y="360" as="targetPoint" />
          </mxGeometry>
        </mxCell>
        <mxCell id="ESDh05Wh4LpR0lza09tz-18" value="" style="endArrow=classic;html=1;entryX=0.5;entryY=0;entryDx=0;entryDy=0;" edge="1" parent="1" target="ESDh05Wh4LpR0lza09tz-19">
          <mxGeometry width="50" height="50" relative="1" as="geometry">
            <mxPoint x="230" y="380" as="sourcePoint" />
            <mxPoint x="250" y="420" as="targetPoint" />
          </mxGeometry>
        </mxCell>
        <mxCell id="ESDh05Wh4LpR0lza09tz-19" value="$$Comp(t_{pcf}) = G_{proc}(F_{proc}(t_{pcf})) = program_{ssa},&lt;br&gt;\\ t_{pcf}\approx program_{ssa}$$" style="rounded=0;whiteSpace=wrap;html=1;" vertex="1" parent="1">
          <mxGeometry x="160" y="440" width="310" height="60" as="geometry" />
        </mxCell>
        <mxCell id="ESDh05Wh4LpR0lza09tz-20" value="" style="endArrow=classic;html=1;" edge="1" parent="1">
          <mxGeometry width="50" height="50" relative="1" as="geometry">
            <mxPoint x="430" y="220" as="sourcePoint" />
            <mxPoint x="430" y="240" as="targetPoint" />
          </mxGeometry>
        </mxCell>
      </root>
    </mxGraphModel>
  </diagram>
</mxfile>
